# xmcd
#
# Track frame offsets:
#	150
#	66290
#	88465
#	98000
#	145820
#
# Disc length: 2626 seconds
#
# Revision: 4
# Processed by: cddbd v1.4PL0 Copyright (c) Steve Scherf et al.
# Submitted via: MusicWizard 6.0.2
#
DISCID=430a4005
DTITLE=Santana - Santana Jam
DYEAR=1993
DGENRE=Rock
TTITLE0=Santana Jam
TTITLE1=Soul Sacrifice
TTITLE2=Let's Get Ourselves Together
TTITLE3=Fried Neckbones and Some Home Fires
TTITLE4=Latin Tropical
EXTD=
EXTT0=
EXTT1=
EXTT2=
EXTT3=
EXTT4=
PLAYORDER=
